<svg 
 xmlns="http://www.w3.org/2000/svg"
 xmlns:xlink="http://www.w3.org/1999/xlink"
 width="18px" height="16px">
<path fill-rule="evenodd"  fill="rgb(104, 104, 104)"
 d="M13.660,9.614 C16.033,10.466 17.686,12.793 17.686,15.412 C17.686,15.636 17.509,15.818 17.290,15.818 C17.071,15.818 16.893,15.636 16.893,15.412 C16.893,12.912 15.156,10.719 12.764,10.198 C12.516,10.144 12.344,9.934 12.334,9.678 C12.324,9.420 12.487,9.189 12.731,9.115 C14.325,8.639 15.438,7.121 15.438,5.423 C15.438,3.302 13.747,1.576 11.669,1.576 C11.450,1.576 11.272,1.394 11.272,1.171 C11.272,0.947 11.450,0.766 11.669,0.766 C14.185,0.766 16.232,2.855 16.232,5.423 C16.232,7.217 15.205,8.846 13.660,9.614 ZM9.440,9.356 C11.816,10.305 13.511,12.654 13.511,15.412 C13.511,15.711 13.273,15.953 12.981,15.953 C12.688,15.953 12.451,15.711 12.451,15.412 C12.451,12.416 10.064,9.979 7.128,9.979 C4.194,9.979 1.807,12.416 1.807,15.412 C1.807,15.711 1.570,15.953 1.277,15.953 C0.984,15.953 0.747,15.711 0.747,15.412 C0.747,12.654 2.441,10.305 4.817,9.356 C3.303,8.513 2.261,6.892 2.261,5.011 C2.261,2.271 4.445,0.042 7.128,0.042 C9.813,0.042 11.996,2.271 11.996,5.011 C11.996,6.892 10.955,8.513 9.440,9.356 ZM7.128,1.124 C5.028,1.124 3.321,2.867 3.321,5.011 C3.321,7.154 5.028,8.897 7.128,8.897 C9.228,8.897 10.936,7.154 10.936,5.011 C10.936,2.867 9.228,1.124 7.128,1.124 Z"/>
</svg>