<svg 
 xmlns="http://www.w3.org/2000/svg"
 xmlns:xlink="http://www.w3.org/1999/xlink"
 width="17px" height="18px">
<path fill-rule="evenodd"  fill="rgb(104, 104, 104)"
 d="M16.740,9.697 L15.022,6.988 L15.707,6.556 C15.923,6.419 16.074,6.206 16.131,5.956 C16.187,5.706 16.143,5.449 16.008,5.233 L15.277,4.066 C14.997,3.620 14.406,3.484 13.958,3.765 L13.259,4.206 L11.198,0.955 C11.019,0.672 10.724,0.511 10.378,0.511 C10.044,0.516 9.742,0.691 9.570,0.979 C8.578,2.653 7.269,4.068 5.679,5.184 L3.536,6.689 L2.199,7.533 C1.208,8.159 0.518,9.136 0.257,10.282 C-0.003,11.429 0.197,12.609 0.821,13.605 C1.444,14.601 2.417,15.294 3.559,15.555 C3.886,15.630 4.216,15.667 4.543,15.667 C5.080,15.667 5.609,15.557 6.112,15.361 L9.398,17.266 C9.398,17.266 9.398,17.266 9.399,17.266 C9.548,17.353 9.712,17.395 9.874,17.395 C10.206,17.395 10.528,17.223 10.705,16.915 L10.943,16.500 C11.206,16.042 11.049,15.454 10.593,15.189 L8.503,13.978 L10.427,12.892 C12.157,11.916 14.036,11.336 16.014,11.169 C16.350,11.140 16.640,10.942 16.790,10.638 C16.940,10.334 16.921,9.983 16.740,9.697 ZM5.165,14.813 C4.697,14.896 4.213,14.888 3.736,14.779 C2.800,14.565 2.004,13.998 1.493,13.181 C0.981,12.366 0.817,11.399 1.030,10.459 C1.244,9.520 1.809,8.720 2.622,8.207 L3.637,7.566 L7.464,13.675 L6.447,14.316 C6.049,14.567 5.614,14.732 5.165,14.813 ZM16.080,10.285 C16.064,10.316 16.027,10.369 15.947,10.376 C13.855,10.552 11.868,11.166 10.039,12.198 L8.146,13.267 L4.298,7.125 L6.134,5.836 C7.816,4.655 9.201,3.158 10.252,1.386 C10.293,1.318 10.356,1.307 10.390,1.307 C10.430,1.295 10.486,1.315 10.530,1.382 L16.072,10.125 C16.114,10.192 16.095,10.254 16.080,10.285 Z"/>
</svg>