<svg 
 xmlns="http://www.w3.org/2000/svg"
 xmlns:xlink="http://www.w3.org/1999/xlink"
 width="14px" height="18px">
<path fill-rule="evenodd"  fill="rgb(104, 104, 104)"
 d="M11.885,12.573 C11.884,12.573 11.884,12.573 11.884,12.574 L7.312,17.372 C7.238,17.449 7.138,17.493 7.031,17.493 C6.925,17.493 6.824,17.449 6.750,17.372 L2.179,12.574 C-0.510,9.743 -0.510,5.308 2.178,2.478 C4.773,-0.253 9.064,-0.318 11.740,2.330 L11.883,2.477 C14.572,5.308 14.572,9.743 11.885,12.573 ZM11.321,3.035 L11.192,2.904 C10.034,1.757 8.533,1.186 7.033,1.186 C5.471,1.186 3.912,1.804 2.741,3.035 C0.349,5.554 0.349,9.498 2.742,12.016 L7.031,16.519 L11.322,12.015 C13.713,9.498 13.712,5.554 11.321,3.035 ZM7.041,10.469 C7.039,10.469 7.039,10.469 7.037,10.469 C6.267,10.469 5.543,10.162 4.997,9.608 C4.450,9.052 4.149,8.312 4.148,7.524 C4.146,5.899 5.440,4.575 7.031,4.571 C7.035,4.571 7.039,4.571 7.042,4.571 C7.800,4.571 8.542,4.885 9.077,5.434 C9.614,5.981 9.922,6.740 9.924,7.516 C9.927,9.140 8.633,10.465 7.041,10.469 ZM8.660,5.858 C8.234,5.421 7.646,5.172 7.042,5.172 C7.039,5.172 7.037,5.172 7.033,5.172 C5.765,5.174 4.735,6.229 4.737,7.524 C4.737,8.816 5.770,9.867 7.037,9.867 C7.038,9.867 7.039,9.867 7.040,9.867 C8.308,9.865 9.338,8.810 9.335,7.517 C9.335,6.899 9.089,6.294 8.660,5.858 Z"/>
</svg>