<svg 
 xmlns="http://www.w3.org/2000/svg"
 xmlns:xlink="http://www.w3.org/1999/xlink"
 width="19px" height="18px">
<path fill-rule="evenodd"  fill="rgb(104, 104, 104)"
 d="M10.376,3.078 L10.376,8.693 L14.001,10.800 C14.258,10.950 14.345,11.277 14.196,11.533 C14.096,11.703 13.915,11.799 13.730,11.799 C13.639,11.799 13.546,11.775 13.461,11.726 L9.568,9.465 C9.402,9.369 9.301,9.192 9.301,9.002 L9.301,3.078 C9.301,2.782 9.541,2.542 9.838,2.542 C10.135,2.542 10.376,2.782 10.376,3.078 ZM9.838,17.904 C8.709,17.904 7.598,17.690 6.535,17.266 C6.328,17.184 6.227,16.951 6.310,16.745 C6.394,16.539 6.629,16.436 6.833,16.521 C7.800,16.906 8.811,17.101 9.838,17.101 C14.317,17.101 17.960,13.468 17.960,9.002 C17.960,4.535 14.317,0.902 9.838,0.902 C5.359,0.902 1.716,4.535 1.716,9.002 C1.716,10.766 2.276,12.444 3.335,13.853 C3.469,14.031 3.433,14.283 3.254,14.415 C3.077,14.549 2.823,14.513 2.691,14.335 C1.526,12.785 0.911,10.941 0.911,9.002 C0.911,4.092 4.915,0.099 9.838,0.099 C14.761,0.099 18.765,4.092 18.765,9.002 C18.765,13.911 14.761,17.904 9.838,17.904 Z"/>
</svg>